<svg xmlns="http://www.w3.org/2000/svg" width="24" height="24" viewBox="0 0 24 24">
  <g id="ic_arrow" transform="translate(-1135 -1085)">
    <rect id="area" width="24" height="24" transform="translate(1135 1085)" fill="rgba(255,255,255,0)"/>
    <path id="icon" d="M-179.773,950.138l-.016-.039a.474.474,0,0,0-.1-.142l-.1.1.069-.128a.35.35,0,0,0-.049-.042l-8.456-5.7a.521.521,0,0,0-.388-.08.521.521,0,0,0-.33.218.511.511,0,0,0-.079.389.507.507,0,0,0,.218.329l7.054,4.761H-198a.517.517,0,0,0-.517.517.518.518,0,0,0,.517.517h16.2l-6.914,5.2a.518.518,0,0,0-.2.34.52.52,0,0,0,.1.385.525.525,0,0,0,.413.205.517.517,0,0,0,.312-.1l8.153-6.133.037-.035.026-.026a.485.485,0,0,0,.095-.141l.011-.027a.6.6,0,0,0,.033-.151.1.1,0,0,0,0-.046A.521.521,0,0,0-179.773,950.138Zm-.273-.134Zm.047.582Z" transform="translate(1336.02 146.406)" fill="#3a53fb" stroke="#3a53fb" stroke-linecap="round" stroke-linejoin="round" stroke-width="0.5"/>
  </g>
</svg>
