<svg xmlns="http://www.w3.org/2000/svg" width="48" height="48" viewBox="0 0 48 48">
  <g id="ic_insta" transform="translate(-1308 -2427)">
    <rect id="area" width="32" height="32" transform="translate(1316 2435)" fill="rgba(255,255,255,0)"/>
    <circle id="bg" cx="24" cy="24" r="24" transform="translate(1308 2427)" fill="#7a7a7c"/>
    <g id="icon" transform="translate(1257.628 2082.43)">
      <path id="패스_3" data-name="패스 3" d="M80.3,354.57H68.458a8.086,8.086,0,0,0-8.086,8.086V374.5a8.083,8.083,0,0,0,8.086,8.085H80.3a8.082,8.082,0,0,0,8.086-8.085V362.656A8.085,8.085,0,0,0,80.3,354.57m5.506,20.139a5.371,5.371,0,0,1-5.368,5.368H68.318a5.372,5.372,0,0,1-5.368-5.368V362.587a5.37,5.37,0,0,1,5.368-5.368H80.44a5.368,5.368,0,0,1,5.368,5.368Z" transform="translate(0)" fill="#fff"/>
      <path id="패스_4" data-name="패스 4" d="M77.549,364.582a7.269,7.269,0,1,0,7.273,7.27,7.268,7.268,0,0,0-7.273-7.27m0,11.981a4.712,4.712,0,1,1,4.713-4.711,4.711,4.711,0,0,1-4.713,4.711" transform="translate(-3.17 -3.203)" fill="#fff"/>
      <path id="패스_5" data-name="패스 5" d="M91.22,361.684a1.694,1.694,0,1,0,1.693,1.693,1.695,1.695,0,0,0-1.693-1.693" transform="translate(-9.328 -2.276)" fill="#fff"/>
    </g>
  </g>
</svg>
