<svg xmlns="http://www.w3.org/2000/svg" width="206" height="35" viewBox="0 0 206 35">
  <g id="img_logo" transform="translate(-857 -334)">
    <rect id="area" width="206" height="35" transform="translate(857 334)" fill="rgba(255,255,255,0)"/>
    <g id="그룹_20" data-name="그룹 20" transform="translate(393.702 631.406)">
      <g id="그룹_19" data-name="그룹 19" transform="translate(497.298 -289.406)">
        <path id="패스_6" data-name="패스 6" d="M539.751-288.2a8.567,8.567,0,0,0-4.326-1.089h-9.513v3.06h9.513a4.094,4.094,0,0,1,3.389,1.442,6.654,6.654,0,0,1,1.158,4.238v.969a6.55,6.55,0,0,1-1.2,4.143,4.1,4.1,0,0,1-3.387,1.448h-1.827V-283.7h-3.778v12.749h5.68a8.633,8.633,0,0,0,4.319-1.109,7.552,7.552,0,0,0,2.965-3.084,9.6,9.6,0,0,0,1.051-4.547v-.842a9.553,9.553,0,0,0-1.07-4.564A7.6,7.6,0,0,0,539.751-288.2Z" transform="translate(-464.425 289.54)" fill="#202124"/>
        <path id="패스_7" data-name="패스 7" d="M512.243-276.928a6.484,6.484,0,0,1-2.183,4.659,7.678,7.678,0,0,1-5.194,1.7,6.894,6.894,0,0,1-5.546-2.374,9.729,9.729,0,0,1-2.022-6.515v-1.12a10.989,10.989,0,0,1,.933-4.659,6.985,6.985,0,0,1,2.663-3.092,7.457,7.457,0,0,1,4.023-1.077,7.474,7.474,0,0,1,5.112,1.7,6.976,6.976,0,0,1,2.241,4.773h-3.778a3.822,3.822,0,0,0-.988-2.574,3.658,3.658,0,0,0-2.587-.8,3.207,3.207,0,0,0-2.826,1.354,7.564,7.564,0,0,0-.963,4.2v1.384a8.109,8.109,0,0,0,.9,4.345,3.15,3.15,0,0,0,2.839,1.371,3.732,3.732,0,0,0,2.613-.8,3.617,3.617,0,0,0,.989-2.473Z" transform="translate(-497.298 289.406)" fill="#202124"/>
        <path id="패스_8" data-name="패스 8" d="M509.186-273.989h8.02v3.034h-11.8v-18.334h3.778Z" transform="translate(-487.981 289.54)" fill="#202124"/>
        <path id="패스_9" data-name="패스 9" d="M526.887-279.573a11.054,11.054,0,0,1-.958,4.747,7.2,7.2,0,0,1-2.738,3.148,7.576,7.576,0,0,1-4.087,1.109,7.622,7.622,0,0,1-4.066-1.1,7.277,7.277,0,0,1-2.77-3.129,10.741,10.741,0,0,1-.995-4.678v-.907a11,11,0,0,1,.975-4.764,7.28,7.28,0,0,1,2.757-3.161,7.586,7.586,0,0,1,4.074-1.1,7.573,7.573,0,0,1,4.072,1.1,7.251,7.251,0,0,1,2.757,3.161,10.963,10.963,0,0,1,.978,4.753Zm-3.829-.829a7.714,7.714,0,0,0-1.032-4.382,3.363,3.363,0,0,0-2.946-1.5,3.365,3.365,0,0,0-2.933,1.481,7.613,7.613,0,0,0-1.046,4.336v.894a7.8,7.8,0,0,0,1.033,4.358,3.354,3.354,0,0,0,2.97,1.547,3.328,3.328,0,0,0,2.922-1.491,7.775,7.775,0,0,0,1.032-4.349Z" transform="translate(-481.243 289.406)" fill="#202124"/>
        <path id="패스_10" data-name="패스 10" d="M533.785-289.289v12.077a6.18,6.18,0,0,1-1.882,4.758,7.259,7.259,0,0,1-5.144,1.751,7.342,7.342,0,0,1-5.1-1.7,6.076,6.076,0,0,1-1.925-4.672v-12.214h3.778v12.1a3.49,3.49,0,0,0,.862,2.626,3.311,3.311,0,0,0,2.385.825q3.188,0,3.236-3.35v-12.2Z" transform="translate(-471.522 289.54)" fill="#202124"/>
        <path id="패스_11" data-name="패스 11" d="M550.26-273.137a6.556,6.556,0,0,1-2.884,1.893,12.063,12.063,0,0,1-4.128.675,8.169,8.169,0,0,1-4.175-1.04,6.925,6.925,0,0,1-2.77-3.015,10.609,10.609,0,0,1-1-4.646v-1.246a11.272,11.272,0,0,1,.926-4.753,6.846,6.846,0,0,1,2.669-3.073,7.691,7.691,0,0,1,4.085-1.064,7.658,7.658,0,0,1,5.1,1.556,6.637,6.637,0,0,1,2.177,4.526h-3.677a3.662,3.662,0,0,0-1.113-2.3,3.558,3.558,0,0,0-2.374-.731,3.35,3.35,0,0,0-2.933,1.448,7.6,7.6,0,0,0-1.021,4.306v1.171a7.245,7.245,0,0,0,1.1,4.356,3.753,3.753,0,0,0,3.21,1.474,4.191,4.191,0,0,0,3.034-.907v-3.161h-3.436v-2.783h7.214Z" transform="translate(-453.637 289.406)" fill="#202124"/>
        <path id="패스_12" data-name="패스 12" d="M550.473-277.666h-3.008v6.711h-3.778v-18.334H550.5a7.7,7.7,0,0,1,5.011,1.448,5,5,0,0,1,1.762,4.094,5.641,5.641,0,0,1-.812,3.129,5.533,5.533,0,0,1-2.46,1.994l3.967,7.493v.176h-4.055Zm-3.008-3.06h3.047a3.125,3.125,0,0,0,2.2-.724,2.59,2.59,0,0,0,.78-2,2.771,2.771,0,0,0-.735-2.039,3.058,3.058,0,0,0-2.261-.744h-3.034Z" transform="translate(-444.003 289.54)" fill="#202124"/>
        <path id="패스_13" data-name="패스 13" d="M566.7-279.573a11.056,11.056,0,0,1-.956,4.747,7.208,7.208,0,0,1-2.74,3.148,7.563,7.563,0,0,1-4.085,1.109,7.63,7.63,0,0,1-4.068-1.1,7.29,7.29,0,0,1-2.77-3.129,10.774,10.774,0,0,1-.995-4.678v-.907a10.994,10.994,0,0,1,.978-4.764,7.25,7.25,0,0,1,2.757-3.161,7.574,7.574,0,0,1,4.072-1.1,7.587,7.587,0,0,1,4.074,1.1,7.277,7.277,0,0,1,2.757,3.161,10.963,10.963,0,0,1,.976,4.753Zm-3.827-.829a7.7,7.7,0,0,0-1.034-4.382,3.364,3.364,0,0,0-2.946-1.5,3.365,3.365,0,0,0-2.933,1.481,7.631,7.631,0,0,0-1.044,4.336v.894a7.82,7.82,0,0,0,1.031,4.358,3.355,3.355,0,0,0,2.972,1.547,3.322,3.322,0,0,0,2.92-1.491,7.758,7.758,0,0,0,1.034-4.349Z" transform="translate(-435.502 289.406)" fill="#202124"/>
        <path id="패스_14" data-name="패스 14" d="M573.6-289.289v12.077a6.18,6.18,0,0,1-1.882,4.758,7.253,7.253,0,0,1-5.142,1.751,7.342,7.342,0,0,1-5.1-1.7,6.078,6.078,0,0,1-1.928-4.672v-12.214h3.778v12.1a3.49,3.49,0,0,0,.864,2.626,3.3,3.3,0,0,0,2.385.825q3.185,0,3.236-3.35v-12.2Z" transform="translate(-425.781 289.54)" fill="#202124"/>
        <path id="패스_15" data-name="패스 15" d="M571.307-277.414v6.459h-3.778v-18.334h7.151a8.278,8.278,0,0,1,3.632.756,5.54,5.54,0,0,1,2.411,2.147,5.984,5.984,0,0,1,.845,3.167,5.261,5.261,0,0,1-1.844,4.248,7.682,7.682,0,0,1-5.106,1.556Zm0-3.06h3.374a3.31,3.31,0,0,0,2.284-.7,2.56,2.56,0,0,0,.789-2.016,3.013,3.013,0,0,0-.8-2.177,2.959,2.959,0,0,0-2.19-.857h-3.462Z" transform="translate(-416.612 289.54)" fill="#202124"/>
      </g>
    </g>
    <path id="합치기_1" data-name="합치기 1" d="M-1251.7-430.853v-10.675h6.484v-9.912h12.562v10.675h-6.484v9.912Z" transform="matrix(0.966, 0.259, -0.259, 0.966, 1958.59, 1099.033)" fill="#3753db"/>
  </g>
</svg>
